<svg width="30" height="52" viewBox="0 0 30 52" fill="none" xmlns="http://www.w3.org/2000/svg">
<path d="M14.5 0L14.5 36" stroke="#CDCDCD" stroke-dasharray="2 2"/>
<path d="M0 49L5 51.8868V46.1132L0 49ZM1.875 49.5H2.5V48.5H1.875V49.5ZM2.5 49.5C2.83011 49.5 3.15732 49.4872 3.48117 49.462L3.40371 48.465C3.10561 48.4882 2.80423 48.5 2.5 48.5V49.5ZM5.4189 49.1572C6.06164 49.0035 6.6851 48.8001 7.28498 48.5513L6.90193 47.6276C6.35036 47.8563 5.77715 48.0433 5.18621 48.1847L5.4189 49.1572ZM9.03236 47.6593C9.59171 47.3158 10.1219 46.9296 10.6184 46.5051L9.96857 45.745C9.51159 46.1357 9.02369 46.4911 8.50907 46.8072L9.03236 47.6593ZM12.0051 45.1184C12.4296 44.6219 12.8158 44.0917 13.1593 43.5324L12.3072 43.0091C11.9911 43.5237 11.6357 44.0116 11.245 44.4686L12.0051 45.1184ZM14.0513 41.785C14.3001 41.1851 14.5035 40.5616 14.6572 39.9189L13.6847 39.6862C13.5433 40.2772 13.3563 40.8504 13.1276 41.4019L14.0513 41.785ZM14.962 37.9812C14.9872 37.6573 15 37.3301 15 37H14C14 37.3042 13.9882 37.6056 13.965 37.9037L14.962 37.9812ZM15 37V36.25H14V37H15ZM15 34.75V34H14V34.75H15Z" fill="#CDCDCD"/>
<path d="M29.5 49L24.5 51.8868V46.1132L29.5 49ZM27.625 49.5H27V48.5H27.625V49.5ZM27 49.5C26.6699 49.5 26.3427 49.4872 26.0188 49.462L26.0963 48.465C26.3944 48.4882 26.6958 48.5 27 48.5V49.5ZM24.0811 49.1572C23.4384 49.0035 22.8149 48.8001 22.215 48.5513L22.5981 47.6276C23.1496 47.8563 23.7228 48.0433 24.3138 48.1847L24.0811 49.1572ZM20.4676 47.6593C19.9083 47.3158 19.3781 46.9296 18.8816 46.5051L19.5314 45.745C19.9884 46.1357 20.4763 46.4911 20.9909 46.8072L20.4676 47.6593ZM17.4949 45.1184C17.0704 44.6219 16.6842 44.0917 16.3407 43.5324L17.1928 43.0091C17.5089 43.5237 17.8643 44.0116 18.255 44.4686L17.4949 45.1184ZM15.4487 41.785C15.1999 41.1851 14.9965 40.5616 14.8428 39.9189L15.8153 39.6862C15.9567 40.2772 16.1437 40.8504 16.3724 41.4019L15.4487 41.785ZM14.538 37.9812C14.5128 37.6573 14.5 37.3301 14.5 37H15.5C15.5 37.3042 15.5118 37.6056 15.535 37.9037L14.538 37.9812ZM14.5 37V36.25H15.5V37H14.5ZM14.5 34.75V34H15.5V34.75H14.5Z" fill="#CDCDCD"/>
</svg>
